<svg width="212" height="40" viewBox="0 0 212 40" fill="none" xmlns="http://www.w3.org/2000/svg">
<path d="M16.2222 12H10.8889C10.6531 12 10.427 12.0937 10.2603 12.2603C10.0937 12.427 10 12.6531 10 12.8889V18.2222C10 18.458 10.0937 18.6841 10.2603 18.8508C10.427 19.0175 10.6531 19.1111 10.8889 19.1111H16.2222C16.458 19.1111 16.6841 19.0175 16.8508 18.8508C17.0175 18.6841 17.1111 18.458 17.1111 18.2222V12.8889C17.1111 12.6531 17.0175 12.427 16.8508 12.2603C16.6841 12.0937 16.458 12 16.2222 12ZM15.3333 17.3333H11.7778V13.7778H15.3333V17.3333ZM25.1111 20.8889H19.7778C19.542 20.8889 19.3159 20.9825 19.1492 21.1492C18.9825 21.3159 18.8889 21.542 18.8889 21.7778V27.1111C18.8889 27.3469 18.9825 27.573 19.1492 27.7397C19.3159 27.9064 19.542 28 19.7778 28H25.1111C25.3469 28 25.573 27.9064 25.7397 27.7397C25.9064 27.573 26 27.3469 26 27.1111V21.7778C26 21.542 25.9064 21.3159 25.7397 21.1492C25.573 20.9825 25.3469 20.8889 25.1111 20.8889ZM24.2222 26.2222H20.6667V22.6667H24.2222V26.2222ZM22.4444 12C20.4836 12 18.8889 13.5947 18.8889 15.5556C18.8889 17.5164 20.4836 19.1111 22.4444 19.1111C24.4053 19.1111 26 17.5164 26 15.5556C26 13.5947 24.4053 12 22.4444 12ZM22.4444 17.3333C21.464 17.3333 20.6667 16.536 20.6667 15.5556C20.6667 14.5751 21.464 13.7778 22.4444 13.7778C23.4249 13.7778 24.2222 14.5751 24.2222 15.5556C24.2222 16.536 23.4249 17.3333 22.4444 17.3333ZM13.5556 20.8889C11.5947 20.8889 10 22.4836 10 24.4444C10 26.4053 11.5947 28 13.5556 28C15.5164 28 17.1111 26.4053 17.1111 24.4444C17.1111 22.4836 15.5164 20.8889 13.5556 20.8889ZM13.5556 26.2222C12.5751 26.2222 11.7778 25.4249 11.7778 24.4444C11.7778 23.464 12.5751 22.6667 13.5556 22.6667C14.536 22.6667 15.3333 23.464 15.3333 24.4444C15.3333 25.4249 14.536 26.2222 13.5556 26.2222Z" fill="white"/>
<path d="M44.3159 26.24C43.5372 26.24 42.8279 26.112 42.1879 25.856C41.5479 25.6 40.9985 25.2267 40.5399 24.736C40.0812 24.2453 39.7239 23.6427 39.4679 22.928C39.2225 22.2027 39.0999 21.376 39.0999 20.448C39.0999 19.52 39.2385 18.6987 39.5159 17.984C39.8039 17.2587 40.1879 16.6507 40.6679 16.16C41.1479 15.6693 41.7079 15.296 42.3479 15.04C42.9879 14.784 43.6705 14.656 44.3959 14.656C44.8545 14.656 45.2652 14.688 45.6279 14.752C46.0012 14.816 46.3212 14.8907 46.5879 14.976C46.8652 15.0613 47.0892 15.1467 47.2599 15.232C47.4305 15.3173 47.5479 15.3813 47.6119 15.424L47.1639 16.704C47.0679 16.64 46.9292 16.5707 46.7479 16.496C46.5665 16.4213 46.3585 16.3467 46.1239 16.272C45.8999 16.1973 45.6492 16.1387 45.3719 16.096C45.1052 16.0427 44.8332 16.016 44.5559 16.016C43.9692 16.016 43.4412 16.1173 42.9719 16.32C42.5025 16.5227 42.1025 16.816 41.7719 17.2C41.4412 17.584 41.1852 18.0533 41.0039 18.608C40.8332 19.152 40.7479 19.7653 40.7479 20.448C40.7479 21.1093 40.8225 21.712 40.9719 22.256C41.1319 22.8 41.3665 23.2693 41.6759 23.664C41.9852 24.048 42.3692 24.3467 42.8279 24.56C43.2972 24.7733 43.8412 24.88 44.4599 24.88C45.1745 24.88 45.7665 24.8053 46.2359 24.656C46.7052 24.5067 47.0572 24.3733 47.2919 24.256L47.6919 25.536C47.6172 25.5893 47.4839 25.6587 47.2919 25.744C47.0999 25.8187 46.8599 25.8933 46.5719 25.968C46.2839 26.0427 45.9479 26.1067 45.5639 26.16C45.1799 26.2133 44.7639 26.24 44.3159 26.24ZM52.1898 24.928C52.5418 24.928 52.8511 24.9227 53.1178 24.912C53.3951 24.8907 53.6244 24.8587 53.8058 24.816V22.336C53.6991 22.2827 53.5231 22.24 53.2778 22.208C53.0431 22.1653 52.7551 22.144 52.4138 22.144C52.1898 22.144 51.9498 22.16 51.6938 22.192C51.4484 22.224 51.2191 22.2933 51.0058 22.4C50.8031 22.496 50.6324 22.6347 50.4938 22.816C50.3551 22.9867 50.2858 23.216 50.2858 23.504C50.2858 24.0373 50.4564 24.4107 50.7978 24.624C51.1391 24.8267 51.6031 24.928 52.1898 24.928ZM52.0618 17.472C52.6591 17.472 53.1604 17.552 53.5658 17.712C53.9818 17.8613 54.3124 18.08 54.5578 18.368C54.8138 18.6453 54.9951 18.9813 55.1018 19.376C55.2084 19.76 55.2618 20.1867 55.2618 20.656V25.856C55.1338 25.8773 54.9524 25.9093 54.7178 25.952C54.4938 25.984 54.2378 26.016 53.9498 26.048C53.6618 26.08 53.3471 26.1067 53.0058 26.128C52.6751 26.16 52.3444 26.176 52.0138 26.176C51.5444 26.176 51.1124 26.128 50.7178 26.032C50.3231 25.936 49.9818 25.7867 49.6938 25.584C49.4058 25.3707 49.1818 25.0933 49.0218 24.752C48.8618 24.4107 48.7818 24 48.7818 23.52C48.7818 23.0613 48.8724 22.6667 49.0538 22.336C49.2458 22.0053 49.5018 21.7387 49.8218 21.536C50.1418 21.3333 50.5151 21.184 50.9418 21.088C51.3684 20.992 51.8164 20.944 52.2858 20.944C52.4351 20.944 52.5898 20.9547 52.7498 20.976C52.9098 20.9867 53.0591 21.008 53.1978 21.04C53.3471 21.0613 53.4751 21.0827 53.5818 21.104C53.6884 21.1253 53.7631 21.1413 53.8058 21.152V20.736C53.8058 20.4907 53.7791 20.2507 53.7258 20.016C53.6724 19.7707 53.5764 19.5573 53.4378 19.376C53.2991 19.184 53.1071 19.0347 52.8618 18.928C52.6271 18.8107 52.3178 18.752 51.9338 18.752C51.4431 18.752 51.0111 18.7893 50.6378 18.864C50.2751 18.928 50.0031 18.9973 49.8218 19.072L49.6458 17.84C49.8378 17.7547 50.1578 17.6747 50.6058 17.6C51.0538 17.5147 51.5391 17.472 52.0618 17.472ZM59.1251 17.68H62.2771V18.928H59.1251V22.768C59.1251 23.184 59.1571 23.5307 59.2211 23.808C59.2851 24.0747 59.3811 24.288 59.5091 24.448C59.6371 24.5973 59.7971 24.704 59.9891 24.768C60.1811 24.832 60.4051 24.864 60.6611 24.864C61.1091 24.864 61.4665 24.816 61.7331 24.72C62.0105 24.6133 62.2025 24.5387 62.3091 24.496L62.5971 25.728C62.4478 25.8027 62.1865 25.8933 61.8131 26C61.4398 26.1173 61.0131 26.176 60.5331 26.176C59.9678 26.176 59.4985 26.1067 59.1251 25.968C58.7625 25.8187 58.4691 25.6 58.2451 25.312C58.0211 25.024 57.8611 24.672 57.7651 24.256C57.6798 23.8293 57.6371 23.3387 57.6371 22.784V15.36L59.1251 15.104V17.68ZM63.5504 21.856C63.5504 21.12 63.657 20.48 63.8704 19.936C64.0837 19.3813 64.3664 18.9227 64.7184 18.56C65.0704 18.1973 65.4757 17.9253 65.9344 17.744C66.393 17.5627 66.8624 17.472 67.3424 17.472C68.4624 17.472 69.321 17.824 69.9184 18.528C70.5157 19.2213 70.8144 20.2827 70.8144 21.712C70.8144 21.776 70.8144 21.8613 70.8144 21.968C70.8144 22.064 70.809 22.1547 70.7984 22.24H65.1024C65.1664 23.104 65.417 23.76 65.8544 24.208C66.2917 24.656 66.9744 24.88 67.9024 24.88C68.425 24.88 68.8624 24.8373 69.2144 24.752C69.577 24.656 69.849 24.5653 70.0304 24.48L70.2384 25.728C70.057 25.824 69.737 25.9253 69.2784 26.032C68.8304 26.1387 68.3184 26.192 67.7424 26.192C67.017 26.192 66.3877 26.0853 65.8544 25.872C65.3317 25.648 64.8997 25.344 64.5584 24.96C64.217 24.576 63.961 24.1227 63.7904 23.6C63.6304 23.0667 63.5504 22.4853 63.5504 21.856ZM69.2624 21.04C69.273 20.368 69.1024 19.8187 68.7504 19.392C68.409 18.9547 67.9344 18.736 67.3264 18.736C66.985 18.736 66.681 18.8053 66.4144 18.944C66.1584 19.072 65.9397 19.2427 65.7584 19.456C65.577 19.6693 65.433 19.9147 65.3264 20.192C65.2304 20.4693 65.1664 20.752 65.1344 21.04H69.2624ZM78.1679 25.168C78.0399 25.2533 77.7892 25.3653 77.4159 25.504C77.0532 25.632 76.6265 25.696 76.1359 25.696C75.6345 25.696 75.1599 25.616 74.7119 25.456C74.2745 25.296 73.8905 25.0507 73.5599 24.72C73.2292 24.3787 72.9679 23.9573 72.7759 23.456C72.5839 22.9547 72.4879 22.3573 72.4879 21.664C72.4879 21.056 72.5785 20.5013 72.7599 20C72.9412 19.488 73.2025 19.0507 73.5439 18.688C73.8959 18.3147 74.3225 18.0267 74.8239 17.824C75.3252 17.6107 75.8905 17.504 76.5199 17.504C77.2132 17.504 77.8159 17.5573 78.3279 17.664C78.8505 17.76 79.2879 17.8507 79.6399 17.936V25.36C79.6399 26.64 79.3092 27.568 78.6479 28.144C77.9865 28.72 76.9839 29.008 75.6399 29.008C75.1172 29.008 74.6212 28.9653 74.1519 28.88C73.6932 28.7947 73.2932 28.6933 72.9519 28.576L73.2239 27.28C73.5225 27.3973 73.8852 27.4987 74.3119 27.584C74.7492 27.68 75.2025 27.728 75.6719 27.728C76.5572 27.728 77.1919 27.552 77.5759 27.2C77.9705 26.848 78.1679 26.288 78.1679 25.52V25.168ZM78.1519 18.992C78.0025 18.9493 77.7999 18.912 77.5439 18.88C77.2985 18.8373 76.9625 18.816 76.5359 18.816C75.7359 18.816 75.1172 19.0773 74.6799 19.6C74.2532 20.1227 74.0399 20.816 74.0399 21.68C74.0399 22.16 74.0985 22.5707 74.2159 22.912C74.3439 23.2533 74.5092 23.536 74.7119 23.76C74.9252 23.984 75.1652 24.1493 75.4319 24.256C75.7092 24.3627 75.9919 24.416 76.2799 24.416C76.6745 24.416 77.0372 24.3627 77.3679 24.256C77.6985 24.1387 77.9599 24.0053 78.1519 23.856V18.992ZM89.5459 21.84C89.5459 22.5013 89.4499 23.0987 89.2579 23.632C89.0659 24.1653 88.7939 24.624 88.4419 25.008C88.1005 25.392 87.6899 25.6907 87.2099 25.904C86.7299 26.1067 86.2072 26.208 85.6419 26.208C85.0765 26.208 84.5539 26.1067 84.0739 25.904C83.5939 25.6907 83.1779 25.392 82.8259 25.008C82.4845 24.624 82.2179 24.1653 82.0259 23.632C81.8339 23.0987 81.7379 22.5013 81.7379 21.84C81.7379 21.1893 81.8339 20.5973 82.0259 20.064C82.2179 19.52 82.4845 19.056 82.8259 18.672C83.1779 18.288 83.5939 17.9947 84.0739 17.792C84.5539 17.5787 85.0765 17.472 85.6419 17.472C86.2072 17.472 86.7299 17.5787 87.2099 17.792C87.6899 17.9947 88.1005 18.288 88.4419 18.672C88.7939 19.056 89.0659 19.52 89.2579 20.064C89.4499 20.5973 89.5459 21.1893 89.5459 21.84ZM87.9939 21.84C87.9939 20.9013 87.7805 20.16 87.3539 19.616C86.9379 19.0613 86.3672 18.784 85.6419 18.784C84.9165 18.784 84.3405 19.0613 83.9139 19.616C83.4979 20.16 83.2899 20.9013 83.2899 21.84C83.2899 22.7787 83.4979 23.5253 83.9139 24.08C84.3405 24.624 84.9165 24.896 85.6419 24.896C86.3672 24.896 86.9379 24.624 87.3539 24.08C87.7805 23.5253 87.9939 22.7787 87.9939 21.84ZM94.7114 17.504C94.8394 17.504 94.9834 17.5147 95.1434 17.536C95.314 17.5467 95.4794 17.568 95.6394 17.6C95.7994 17.6213 95.9434 17.648 96.0714 17.68C96.21 17.7013 96.3114 17.7227 96.3754 17.744L96.1194 19.04C96.002 18.9973 95.8047 18.9493 95.5274 18.896C95.2607 18.832 94.914 18.8 94.4874 18.8C94.21 18.8 93.9327 18.832 93.6554 18.896C93.3887 18.9493 93.2127 18.9867 93.1274 19.008V26H91.6394V18.032C91.9914 17.904 92.4287 17.7867 92.9514 17.68C93.474 17.5627 94.0607 17.504 94.7114 17.504ZM97.179 27.552C97.2963 27.6053 97.4457 27.6533 97.627 27.696C97.819 27.7493 98.0057 27.776 98.187 27.776C98.7737 27.776 99.2323 27.6427 99.563 27.376C99.8937 27.12 100.192 26.6987 100.459 26.112C99.787 24.832 99.1577 23.4773 98.571 22.048C97.995 20.608 97.515 19.152 97.131 17.68H98.731C98.8483 18.16 98.987 18.6773 99.147 19.232C99.3177 19.7867 99.5043 20.3573 99.707 20.944C99.9097 21.5307 100.128 22.1173 100.363 22.704C100.598 23.2907 100.843 23.856 101.099 24.4C101.504 23.28 101.856 22.1707 102.155 21.072C102.454 19.9733 102.736 18.8427 103.003 17.68H104.539C104.155 19.248 103.728 20.7573 103.259 22.208C102.79 23.648 102.283 24.9973 101.739 26.256C101.526 26.736 101.302 27.1467 101.067 27.488C100.843 27.84 100.592 28.128 100.315 28.352C100.038 28.576 99.723 28.7413 99.371 28.848C99.0297 28.9547 98.6403 29.008 98.203 29.008C98.0857 29.008 97.963 28.9973 97.835 28.976C97.707 28.9653 97.579 28.944 97.451 28.912C97.3337 28.8907 97.2217 28.864 97.115 28.832C97.019 28.8 96.9497 28.7733 96.907 28.752L97.179 27.552Z" fill="white"/>
</svg>
